<svg xmlns="http://www.w3.org/2000/svg" viewBox="0 0 512 512">
<defs>
  <radialGradient id="bg" cx="50%" cy="38%" r="75%"><stop offset="0" stop-color="#17353e"/><stop offset=".62" stop-color="#0b171d"/><stop offset="1" stop-color="#060b0e"/></radialGradient>
  <linearGradient id="gold" x1="0" y1="0" x2="1" y2="1"><stop offset="0" stop-color="#f2d89e"/><stop offset="1" stop-color="#9f7445"/></linearGradient>
</defs>
<rect width="512" height="512" rx="112" fill="url(#bg)"/>
<circle cx="256" cy="256" r="176" fill="none" stroke="#8a6648" stroke-width="8" opacity=".65"/>
<circle cx="256" cy="256" r="142" fill="none" stroke="#bd6658" stroke-width="5" opacity=".55" stroke-dasharray="14 18"/>
<path d="M256 112c-40 0-79 39-88 96l18 122c5 35 33 61 70 70 37-9 65-35 70-70l18-122c-9-57-48-96-88-96Z" fill="#21161c" stroke="url(#gold)" stroke-width="9"/>
<path d="M215 209c0-28 18-53 41-53s41 25 41 53v74c0 41-18 70-41 70s-41-29-41-70Z" fill="#e4d6bc" stroke="#7b5c43" stroke-width="7"/>
<ellipse cx="238" cy="231" rx="10" ry="18" fill="#1a1016"/>
<ellipse cx="274" cy="231" rx="10" ry="18" fill="#1a1016"/>
<path d="M230 300h52" stroke="#8e6848" stroke-width="8" stroke-linecap="round"/>
<path d="M164 153l-38-51 65 22M348 153l38-51-65 22" fill="none" stroke="#d86454" stroke-width="12" stroke-linecap="round" stroke-linejoin="round"/>
<path d="M136 376c41-25 76-34 120-34s79 9 120 34" fill="none" stroke="#c9a46a" stroke-width="10" stroke-linecap="round" opacity=".75"/>
</svg>
